<svg xmlns="http://www.w3.org/2000/svg" viewBox="0 0 588.08 410"><defs><style>.cls-1,.cls-2{fill:#0abab5;}.cls-1{stroke:#000;}.cls-1,.cls-3{stroke-miterlimit:10;}.cls-3{fill:#106359;stroke:#4a4a4a;}</style></defs><g id="Layer_2" data-name="Layer 2"><g id="Layer_1-2" data-name="Layer 1"><path class="cls-1" d="M148.41,276H231l43.12,89H109.88Z"/><path class="cls-2" d="M251.08,31.09h88.56c14.76-.58,36.49-1,62.78,0,42.68,1.65,64,2.48,83.92,9.63,47.25,17,71.73,59.81,78.42,71.54,32.34,56.62,29.8,127.83,0,181.6-7.24,13.08-32,57.84-85.29,77.05a148.83,148.83,0,0,1-60.54,8.25l-45.4-101.81a130.31,130.31,0,0,0,30.27,5.51c11.23.69,41.68,2.55,63.28-12.38C497.6,249.37,512.6,193.25,485,154.91c-17.64-24.47-49-36.7-81.17-33L299.24,126,251.08,38"/><path class="cls-3" d="M.79,409.5,195.2.5h42.19L430,385.66l-79.28,1.83-10.59-1.83L228.22,156.4l-121,253.1Z"/></g></g></svg>