<svg width="150" height="150" viewBox="0 0 150 150" fill="none" xmlns="http://www.w3.org/2000/svg">
<path d="M136.952 39.2314V110.768L75 146.536L13.0479 110.768V39.2314L75 3.46289L136.952 39.2314Z" stroke="#C9BFC0" stroke-width="6"/>
<path d="M27.76 103V97H35.6V53H27.76V47H49.6C56.96 47 62.64 48.8667 66.64 52.6C70.6933 56.3333 72.72 62.0667 72.72 69.8V80.2C72.72 87.9867 70.6933 93.7467 66.64 97.48C62.64 101.16 56.96 103 49.6 103H27.76ZM42.32 96.92H49.6C55.04 96.92 59.1467 95.5867 61.92 92.92C64.6933 90.2533 66.08 86.12 66.08 80.52V69.56C66.08 63.8533 64.6933 59.6933 61.92 57.08C59.1467 54.4667 55.04 53.16 49.6 53.16H42.32V96.92ZM102.087 104.12C98.0335 104.12 94.4069 103.4 91.2069 101.96C88.0069 100.52 85.4735 98.36 83.6069 95.48C81.7935 92.5467 80.8869 88.8933 80.8869 84.52V82.84H87.5269V84.52C87.5269 89.16 88.8869 92.6267 91.6069 94.92C94.3269 97.16 97.8202 98.28 102.087 98.28C106.46 98.28 109.794 97.2933 112.087 95.32C114.38 93.3467 115.527 90.8667 115.527 87.88C115.527 85.8 114.994 84.1467 113.927 82.92C112.914 81.6933 111.474 80.7067 109.607 79.96C107.74 79.16 105.554 78.4667 103.047 77.88L98.8869 76.84C95.6335 75.9867 92.7535 74.9467 90.2469 73.72C87.7402 72.4933 85.7669 70.8933 84.3269 68.92C82.9402 66.8933 82.2469 64.3067 82.2469 61.16C82.2469 58.0133 83.0202 55.2933 84.5669 53C86.1669 50.7067 88.3802 48.9467 91.2069 47.72C94.0869 46.4933 97.3935 45.88 101.127 45.88C104.914 45.88 108.3 46.5467 111.287 47.88C114.327 49.16 116.7 51.08 118.407 53.64C120.167 56.1467 121.047 59.32 121.047 63.16V66.52H114.407V63.16C114.407 60.44 113.82 58.2533 112.647 56.6C111.527 54.9467 109.954 53.72 107.927 52.92C105.954 52.12 103.687 51.72 101.127 51.72C97.4469 51.72 94.4869 52.5467 92.2469 54.2C90.0069 55.8 88.8869 58.0933 88.8869 61.08C88.8869 63.0533 89.3669 64.6533 90.3269 65.88C91.2869 67.1067 92.6469 68.12 94.4069 68.92C96.1669 69.6667 98.2735 70.3333 100.727 70.92L104.887 71.96C108.14 72.6533 111.047 73.6133 113.607 74.84C116.22 76.0133 118.3 77.64 119.847 79.72C121.394 81.7467 122.167 84.4133 122.167 87.72C122.167 91.0267 121.34 93.9067 119.687 96.36C118.034 98.8133 115.687 100.733 112.647 102.12C109.66 103.453 106.14 104.12 102.087 104.12Z" fill="#C9BFC0"/>
</svg>
